<?xml version="1.0" encoding="UTF-8" standalone="no"?>
<!DOCTYPE svg PUBLIC "-//W3C//DTD SVG 1.1//EN" "http://www.w3.org/Graphics/SVG/1.1/DTD/svg11.dtd">
<svg width="100%" height="100%" viewBox="0 0 512 512" version="1.1" xmlns="http://www.w3.org/2000/svg" xmlns:xlink="http://www.w3.org/1999/xlink" xml:space="preserve" xmlns:serif="http://www.serif.com/" style="fill-rule:evenodd;clip-rule:evenodd;stroke-linejoin:round;stroke-miterlimit:2;">
    <g>
        <path d="M23.271,256.036C23.271,256.025 23.271,256.013 23.271,256.002C23.271,128.333 128.327,23.278 255.996,23.278C308.303,23.278 359.114,40.913 400.175,73.319L364.768,73.319C358.427,73.381 353.243,78.615 353.243,84.957C353.243,91.299 358.427,96.533 364.768,96.595L430.602,96.595C436.987,96.595 442.241,91.341 442.241,84.956L442.241,19.12C442.179,12.779 436.945,7.595 430.603,7.595C424.261,7.595 419.026,12.779 418.965,19.12L418.965,58.53C373.109,20.702 315.481,-0 256.036,0C115.579,0 -0,115.579 0,256.036C0,323.914 26.993,389.081 74.989,437.079C77.162,439.203 80.083,440.393 83.122,440.393C89.506,440.393 94.759,435.14 94.759,428.756C94.759,425.717 93.569,422.795 91.445,420.622C47.669,377.084 23.103,317.777 23.271,256.036Z" style="fill:rgb(20,184,166);fill-rule:nonzero;"/>
        <g>
            <path d="M154.312,465.469C147.675,462.239 141.194,458.696 134.891,454.854C133.066,453.74 130.967,453.15 128.828,453.15C122.444,453.15 117.19,458.403 117.19,464.787C117.19,468.839 119.306,472.609 122.764,474.72C129.701,478.952 136.835,482.851 144.143,486.404C145.727,487.174 147.467,487.574 149.229,487.574C155.613,487.574 160.866,482.321 160.866,475.936C160.866,471.488 158.316,467.413 154.315,465.469L154.312,465.469ZM465.568,154.533C467.509,158.541 471.588,161.098 476.042,161.098C482.426,161.098 487.68,155.844 487.68,149.459C487.68,147.702 487.282,145.967 486.516,144.386C482.974,137.077 479.087,129.94 474.867,123.001C472.757,119.533 468.981,117.41 464.922,117.41C458.537,117.41 453.282,122.665 453.282,129.05C453.282,131.184 453.869,133.277 454.978,135.1C458.812,141.407 462.346,147.892 465.568,154.533ZM283.643,487.166C276.296,488.039 268.862,488.558 261.544,488.735C255.332,488.973 250.351,494.148 250.351,500.364C250.351,506.682 255.497,511.905 261.814,512C261.905,512 262.002,512 262.092,511.995C270.139,511.807 278.305,511.231 286.374,510.278C292.2,509.584 296.636,504.588 296.636,498.722C296.636,492.337 291.382,487.083 284.997,487.083C284.546,487.083 284.095,487.109 283.646,487.162L283.643,487.166ZM217.408,485.586C210.126,484.369 202.906,482.804 195.774,480.895C194.794,480.633 193.783,480.5 192.768,480.5C186.382,480.5 181.127,485.755 181.127,492.141C181.127,497.396 184.686,502.03 189.762,503.387C197.615,505.483 205.562,507.203 213.578,508.541C214.211,508.647 214.851,508.7 215.493,508.7C221.877,508.7 227.131,503.446 227.131,497.062C227.131,491.398 222.995,486.515 217.408,485.583L217.408,485.586ZM500.641,250.424C494.259,250.269 488.879,255.39 488.719,261.771C488.531,269.159 487.998,276.533 487.122,283.871C486.367,290.211 490.96,296.05 497.299,296.81C497.763,296.862 498.23,296.888 498.697,296.89C504.555,296.881 509.541,292.451 510.238,286.634C511.197,278.571 511.78,270.469 511.984,262.352C511.986,262.253 511.988,262.155 511.988,262.056C511.988,255.782 506.913,250.58 500.641,250.424ZM464.92,383.543C459.637,379.962 452.345,381.354 448.752,386.629C444.599,392.739 440.16,398.65 435.449,404.341C433.661,406.444 432.678,409.117 432.678,411.877C432.678,418.26 437.931,423.512 444.314,423.512C447.831,423.512 451.164,421.918 453.372,419.18C458.555,412.923 463.437,406.425 468.004,399.705C469.315,397.777 470.015,395.498 470.015,393.166C470.015,389.316 468.104,385.707 464.92,383.543ZM480.956,195.993C482.853,203.128 484.41,210.35 485.621,217.632C486.549,223.219 491.425,227.359 497.089,227.367C497.73,227.366 498.37,227.312 499.003,227.208C504.595,226.28 508.736,221.396 508.736,215.728C508.736,215.088 508.684,214.45 508.579,213.819C507.249,205.804 505.537,197.856 503.451,190.003C502.098,184.923 497.462,181.36 492.204,181.36C485.82,181.36 480.566,186.614 480.566,192.998C480.566,194.009 480.698,195.016 480.958,195.993L480.956,195.993ZM404.138,435.613C398.448,440.32 392.537,444.754 386.426,448.899C383.235,451.063 381.319,454.676 381.319,458.531C381.319,464.915 386.572,470.168 392.956,470.168C395.283,470.168 397.558,469.469 399.485,468.163C406.207,463.605 412.709,458.732 418.97,453.559C421.644,451.349 423.195,448.055 423.195,444.586C423.195,438.2 417.94,432.945 411.554,432.945C408.848,432.945 406.225,433.889 404.138,435.613ZM492.338,319.551C486.257,317.62 479.662,321.026 477.718,327.103C475.471,334.135 472.89,341.054 469.983,347.839C469.307,349.341 468.957,350.97 468.957,352.618C468.957,359.001 474.209,364.254 480.593,364.254C485.313,364.254 489.586,361.382 491.368,357.011C494.575,349.54 497.418,341.919 499.886,334.172C500.252,333.028 500.438,331.834 500.438,330.632C500.438,325.583 497.149,321.084 492.338,319.551ZM347.614,470.083C340.827,472.986 333.905,475.563 326.872,477.806C322.059,479.34 318.77,483.841 318.77,488.893C318.77,495.277 324.023,500.529 330.407,500.529C331.606,500.529 332.799,500.344 333.941,499.98C341.683,497.513 349.303,494.678 356.774,491.485C361.047,489.655 363.832,485.433 363.832,480.784C363.832,474.398 358.577,469.143 352.192,469.143C350.616,469.143 349.057,469.463 347.609,470.083L347.614,470.083Z" style="fill:rgb(204,251,241);fill-rule:nonzero;"/>
        </g>
        <path d="M157.609,232.259C157.609,213.185 145.067,197.902 125.656,193.319C103.773,188.136 81.019,198.834 71.051,218.993C70.224,220.624 69.793,222.428 69.793,224.257C69.793,230.642 75.047,235.896 81.432,235.896C85.857,235.896 89.915,233.373 91.872,229.404C96.974,218.815 108.89,213.187 120.308,215.973C123.599,216.749 134.333,220.22 134.333,232.259C134.333,244.397 120.314,253.76 105.471,263.673C88.758,274.828 69.824,287.473 69.824,308.407C69.824,314.791 75.077,320.045 81.461,320.045L145.97,320.045C152.312,319.984 157.496,314.75 157.496,308.407C157.496,302.065 152.312,296.831 145.97,296.77L99.862,296.77C104.738,292.15 111.63,287.547 118.392,283.029C136.778,270.754 157.609,256.843 157.609,232.259ZM267.67,270.583C267.669,264.199 262.416,258.946 256.032,258.946L246.575,258.946L246.575,197.118C246.574,190.734 241.32,185.481 234.936,185.481C231.408,185.481 228.065,187.085 225.857,189.836L166.939,263.304C165.286,265.369 164.385,267.936 164.385,270.581C164.385,276.965 169.636,282.218 176.02,282.221L223.3,282.221L223.3,314.953C223.299,314.991 223.299,315.028 223.299,315.066C223.299,321.451 228.553,326.704 234.937,326.704C241.322,326.704 246.576,321.451 246.576,315.066C246.576,315.028 246.576,314.991 246.575,314.953L246.575,282.221L256.032,282.221C262.416,282.221 267.67,276.968 267.67,270.583ZM223.3,258.946L200.278,258.946L223.3,230.231L223.3,258.946ZM327.235,179.161C326.477,179.008 325.706,178.931 324.934,178.931C319.41,178.931 314.613,182.872 313.539,188.29L287.354,319.218C286.101,325.478 290.221,331.66 296.481,332.913C297.235,333.064 298.003,333.14 298.772,333.14C304.293,333.134 309.088,329.2 310.171,323.787L336.357,192.859C336.508,192.105 336.585,191.337 336.585,190.568C336.585,185.045 332.651,180.245 327.235,179.161ZM386.954,320.051C391.644,320.048 395.895,317.213 397.7,312.885L441.343,208.142C441.935,206.723 442.24,205.2 442.24,203.661C442.24,197.278 436.988,192.026 430.605,192.026C430.604,192.026 430.603,192.026 430.602,192.026L371.685,192.026C365.343,192.088 360.159,197.322 360.159,203.664C360.159,210.006 365.343,215.24 371.685,215.302L413.145,215.302L376.219,303.934C375.631,305.35 375.328,306.869 375.328,308.403C375.328,314.785 380.572,320.041 386.954,320.055L386.954,320.051Z" style="fill:rgb(15,118,110);fill-rule:nonzero;"/>
    </g>
</svg>
