<svg xmlns="http://www.w3.org/2000/svg" version="1.1" xmlns:xlink="http://www.w3.org/1999/xlink" width="512" height="512" x="0" y="0" viewBox="0 0 512 512" style="enable-background:new 0 0 512 512" xml:space="preserve" class=""><g><circle cx="256" cy="256" r="256" style="" fill="#ecf0f1" data-original="#ecf0f1"></circle><circle cx="256" cy="256" r="256" style="" fill="#14b8a6" data-original="#fad24d" class="" opacity="1"></circle><path d="m228.546 238.629-6.957 34.955-23.307 8.016 13.793 217.594 88.682-.503 4.142-221.201-14.885-4.683-7.586-35.659-53.882 1.481z" style="" fill="#f0ba7d" data-original="#f0ba7d" class=""></path><path d="M192.992 342.31c38.801 18.812 78.715 22.761 120.732 1.065l-1.432 162.402A256.968 256.968 0 0 1 256 512c-22.256 0-43.846-2.844-64.432-8.182l1.424-161.508z" style="" fill="#21d0c3" data-original="#21d0c3"></path><path d="m297.499 275.471 67.592 18.434c17.527 5.411 33.188 15.775 33.689 34.4l3.707 137.649a255.542 255.542 0 0 1-49.674 27.085l-4.314-76.125-11.837 82.104C311.304 507.439 284.186 512 256.001 512c-.736 0-1.466-.022-2.201-.028l-.028-69.787 43.727-166.714z" style="" fill="#eef3f7" data-original="#eef3f7"></path><path d="m296.855 274.993 8.907 3.593 30.383 45.612-35.613-.573 22.074 11.812-68.833 106.749 43.082-167.193zM218.424 274.774l-67.907 17.239c-17.622 5.103-33.46 15.188-34.291 33.801l-6.262 140.453a255.615 255.615 0 0 0 49.193 26.762l5.78-77.732 10.575 83.779c24.647 8.163 50.956 12.666 78.287 12.897l-.028-69.787-35.347-167.412z" style="" fill="#ffffff" data-original="#ffffff"></path><path d="m219.076 274.306-10.62 4.068-29.53 44.437 35.619.057-22.28 11.42 61.508 107.897-34.697-167.879z" style="" fill="#eef3f7" data-original="#eef3f7"></path><path d="M182.578 154.801c-1.135 11.456 1.159 36.892 15.056 35.924 0 0 20.002 58.295 58.511 64.896 33.246-6.075 53.47-58.873 55.005-63.896 4.579 1.564 17.396-19.756 7.571-37.198-2.818-5.002-10.795-.952-10.795-.952l-.614-14.565c-52.536 5.102-85.296-45.711-85.296-45.711-20.027 21.785-24.845 34.219-26.987 61.314 0 0-3.761-2.335-7.936-2.424-1.258-.028-2.872 1.068-4.515 2.612z" style="" fill="#fed298" data-original="#fed298" class=""></path><path d="m221.588 273.584 6.805-34.175c-19.713-19.409-29.992-48.684-29.992-48.684-13.432 1.498-18.826-35.521-9.789-36.814 4.133-.592 6.9.703 6.9.703 2.035-28.608 7.545-37.307 26.503-61.314 0 0 33.118 55.72 85.613 50.617l.751 12.014c2.482-2.44 7.019-4.733 10.799 1.484 6.15 10.115-1.895 33.103-9.343 34.506-1.055 3.544-9.344 29.695-26.901 47.615l7.079 33.273c19.699 6.379 38.692 11.306 57.757 16.375-9.685-59.038-15.235-122.924-26.799-177.458C309.873 59.395 249.206 44.759 214.319 68c0 0-30.082 12.121-35.574 52.32-5.49 40.197-3.389 44.071-3.389 44.071l-9.693 123.779c17.973-4.563 38.784-8.692 55.925-14.586z" style="" fill="#666666" data-original="#666666"></path><path d="M348.527 418.914c-9.989-1.725-16.69-11.222-14.966-21.212 1.725-9.988 11.223-16.692 21.212-14.968 9.991 1.725 16.691 11.225 14.967 21.216-1.725 9.989-11.223 16.689-21.213 14.964z" style="" fill="#fefefe" data-original="#fefefe"></path><path d="M348.709 417.86c-9.408-1.625-15.719-10.566-14.094-19.975s10.568-15.721 19.978-14.096c9.409 1.626 15.718 10.571 14.094 19.979-1.627 9.409-10.568 15.717-19.978 14.092z" style="" fill="#0f7986" data-original="#0f7986"></path><path d="M350.022 410.253c-5.203-.898-8.697-5.851-7.798-11.054.898-5.207 5.849-8.696 11.052-7.798a9.564 9.564 0 0 1 7.799 11.053c-.897 5.204-5.846 8.697-11.053 7.799z" style="" fill="#ebecec" data-original="#ebecec"></path><path d="m351.147 392.425 4.204.725 2.26-13.09-4.202-.725-2.262 13.09z" style="" fill="#fefefe" data-original="#fefefe"></path><path d="m210.372 422.546 7.877-1.563a12.372 12.372 0 0 0 7.886-5.279c1.765-2.643 2.532-5.957 1.866-9.304l-9.262-46.668c-3.496-17.61-17.273-26.591-33.016-28.581-6.033-.764-12.357-.486-18.483.729-6.131 1.212-12.075 3.37-17.356 6.378-13.754 7.833-23.024 21.378-19.522 39.017l9.262 46.669a12.382 12.382 0 0 0 5.28 7.885l.006-.002a12.354 12.354 0 0 0 9.299 1.868l7.872-1.563-.644-3.245-7.874 1.563a9.08 9.08 0 0 1-6.822-1.367l.001-.001a9.092 9.092 0 0 1-3.874-5.781l-9.262-46.669c-3.177-16.005 5.317-28.341 17.902-35.504 4.973-2.834 10.583-4.868 16.373-6.017 5.789-1.147 11.752-1.406 17.434-.689 14.408 1.821 27.009 9.982 30.178 25.956l9.265 46.669a9.088 9.088 0 0 1-1.372 6.822 9.076 9.076 0 0 1-5.783 3.869l-7.876 1.563.645 3.245z" style="" fill="#21d0c3" data-original="#21d0c3"></path><path d="m221.235 366.648-1.415-7.129c-3.602-18.157-17.777-27.41-33.963-29.458-6.148-.775-12.589-.499-18.83.741-6.243 1.236-12.3 3.436-17.682 6.498-14.146 8.057-23.673 22.003-20.065 40.19l1.417 7.129 5.405-1.075-1.415-7.128c-3.067-15.458 5.168-27.392 17.362-34.337 4.874-2.774 10.369-4.766 16.047-5.892 5.676-1.127 11.521-1.38 17.088-.677 13.962 1.764 26.167 9.652 29.231 25.081l1.414 7.129 5.406-1.072z" style="" fill="#4d4d4d" data-original="#4d4d4d"></path><path d="m155.836 434.082 4.213-.837a4.627 4.627 0 1 0-.91-4.589l-4.212.835.909 4.591zM213.72 422.593l-4.21.837a4.627 4.627 0 1 1-.911-4.591l4.212-.837.909 4.591z" style="" fill="#076673" data-original="#076673"></path><path d="m169.59 330.379-1.607-8.097-3.195.636-3.19.632 1.625 8.176a42.558 42.558 0 0 1 3.693-.903 42.334 42.334 0 0 1 2.674-.444z" style="" fill="#666666" data-original="#666666"></path><path d="M162.697 429.577a1.4 1.4 0 0 0 1.1-1.645 1.4 1.4 0 1 0-1.1 1.645zM204.351 421.295a1.4 1.4 0 1 0-.55-2.746 1.4 1.4 0 0 0 .55 2.746z" style="" fill="#0f7986" data-original="#0f7986"></path><path d="M349.511 410.164c-4.923-.85-8.224-5.531-7.375-10.455a9.046 9.046 0 0 1 17.828 3.077c-.85 4.925-5.531 8.228-10.453 7.378z" style="" fill="#fefefe" data-original="#fefefe"></path><path d="M208.563 278.563c-.142.001-49.862.414-41.463 43.912l-4.623.884c-9.468-49.038 45.874-49.49 46.032-49.492l.054 4.696zM307.775 274.091c8.111.218 23.794 2.429 35.861 17.111 11.811 14.367 20.091 40.752 13.899 89.128l-4.661-.59c5.993-46.823-1.751-72.031-12.866-85.554-10.86-13.211-25.019-15.202-32.344-15.399l.111-4.696z" style="" fill="#4d4d4d" data-original="#4d4d4d"></path></g></svg>