<?xml version="1.0" encoding="UTF-8" standalone="no"?>
<!DOCTYPE svg PUBLIC "-//W3C//DTD SVG 1.1//EN" "http://www.w3.org/Graphics/SVG/1.1/DTD/svg11.dtd">
<svg width="100%" height="100%" viewBox="0 0 900 900" version="1.1" xmlns="http://www.w3.org/2000/svg" xmlns:xlink="http://www.w3.org/1999/xlink" xml:space="preserve" xmlns:serif="http://www.serif.com/" style="fill-rule:evenodd;clip-rule:evenodd;stroke-linejoin:round;stroke-miterlimit:2;">
    <path d="M599.97,212.412C595.31,185.877 591.645,159.338 588.242,132.798L587.001,122.845L586.391,117.869L586.243,116.625C586.192,116.219 586.152,115.754 586.074,115.484L585.674,113.618C584.622,108.681 582.738,104.118 580.174,100.124C577.585,96.148 574.404,92.682 570.732,90.027C567.066,87.375 563.069,85.411 558.961,84.306C554.855,83.199 550.713,82.825 546.672,83.214L528.101,84.915L508.192,86.65C501.556,87.222 494.919,87.778 488.283,88.29C461.737,90.432 435.189,92.288 408.64,93.931C395.366,94.781 382.091,95.516 368.816,96.249L363.838,96.527L361.349,96.655L360.727,96.686L360.422,96.702L360.305,96.732L359.841,96.84C359.533,96.906 359.227,96.961 358.921,97.003C358.615,97.045 358.304,97.053 358.021,97.189C357.447,97.41 356.857,97.504 356.293,97.691C354.038,98.43 352.062,99.717 350.299,101.169C348.543,102.642 347.072,104.431 346.001,106.357C344.941,108.293 344.232,110.31 343.903,112.346C343.695,113.356 343.71,114.401 343.681,115.435C343.716,115.702 343.739,115.965 343.749,116.227L343.754,116.619L343.75,116.815L343.746,116.913L343.754,117.179L343.943,122.157L344.584,142.071C345.45,168.623 346.056,195.176 346.557,221.73C346.708,228.368 346.769,235.007 346.869,241.646L346.873,241.957L346.863,242.489L346.837,243.566L346.77,245.721L346.575,250.03C346.531,251.465 346.333,252.899 346.141,254.333C345.95,255.767 345.746,257.199 345.527,258.63C345.168,261.502 344.378,264.306 343.701,267.126C343.32,268.525 343.03,269.952 342.535,271.317C342.072,272.692 341.596,274.064 341.106,275.431C333.169,297.301 317.048,315.774 296.579,326.736C293.988,328.044 291.385,329.345 288.721,330.492C286.015,331.549 283.282,332.555 280.537,333.505C277.747,334.309 274.928,335.04 272.106,335.725C269.273,336.341 266.395,336.733 263.529,337.162C262.094,337.399 260.659,337.497 259.22,337.581L254.902,337.814C251.478,337.979 250.527,337.908 248.718,337.928L238.759,337.944L198.924,337.749C185.645,337.59 172.367,337.504 159.087,337.284L122.157,336.633C120.187,336.624 118.283,336.936 116.415,337.617C114.55,338.282 112.703,339.293 111.082,340.663C109.452,342.023 108.07,343.708 106.994,345.572C105.941,347.453 105.224,349.523 104.895,351.832L104.807,352.264L104.756,352.481C104.748,352.525 104.737,352.537 104.73,352.607L104.719,352.918L104.632,355.408L104.437,360.388L104.03,370.348L103.196,390.269C102.57,403.55 101.981,416.831 101.247,430.112C100.581,443.393 99.764,456.675 98.992,469.957C98.136,483.239 97.311,496.521 96.345,509.804C95.888,516.445 95.408,523.087 94.889,529.728L93.63,546.608C93.534,550.416 94.149,554.307 95.52,558.088C96.888,561.868 99.04,565.489 101.816,568.72C104.588,571.963 108.045,574.728 111.967,576.874L113.445,577.703C113.955,577.936 114.482,578.128 115.003,578.353L116.579,579.03C117.1,579.297 117.666,579.371 118.212,579.561L119.874,580.073C120.153,580.155 120.43,580.265 120.714,580.33L121.575,580.488L123.311,580.838L124.188,581.026C124.352,581.055 124.443,581.097 124.668,581.116L125.291,581.181C138.575,582.55 151.86,584.028 165.146,585.586C191.717,588.755 218.289,592.193 244.866,596.635C218.332,601.324 191.792,605.009 165.252,608.424C151.982,610.106 138.711,611.708 125.44,613.199L124.818,613.27C124.628,613.297 124.305,613.301 124.054,613.316L122.444,613.39L119.206,613.512L117.58,613.556C117.038,613.554 116.498,613.502 115.955,613.476L112.691,613.26C111.605,613.156 110.496,613.155 109.421,612.947L106.169,612.406C105.084,612.213 103.989,612.039 102.908,611.81L99.703,610.949C91.138,608.612 82.944,604.583 75.642,599.187C68.337,593.787 61.984,586.936 56.974,579.064C51.951,571.196 48.478,562.208 46.663,552.863L46.297,551.11C46.177,550.525 46.131,549.935 46.048,549.346L45.626,545.796L45.433,544.013L45.28,542.406L45.067,539.917L44.216,529.962C43.635,523.325 43.093,516.689 42.575,510.052C41.485,496.779 40.537,483.505 39.558,470.232C38.662,456.958 37.722,443.684 36.932,430.41C36.074,417.136 35.362,403.861 34.613,390.587L33.594,370.674L33.094,360.718L32.852,355.74L32.742,353.251L32.728,352.94L32.728,352.444L32.734,351.417L32.76,349.362C32.846,338.411 34.958,327.289 39.036,316.915C43.094,306.522 49.204,296.972 56.748,288.747C64.309,280.531 73.388,273.636 83.506,268.604C93.616,263.574 104.738,260.41 115.993,259.325L120.218,259.02C121.564,258.934 123.295,258.84 123.867,258.833L128.845,258.673L138.802,258.404L158.717,257.884C171.993,257.541 185.271,257.332 198.547,257.049L238.379,256.484L248.337,256.407C249.848,256.391 252.218,256.402 252.107,256.309C252.325,256.282 252.542,256.268 252.761,256.268C252.981,256.275 253.204,256.296 253.402,256.209C253.806,256.078 254.237,256.095 254.642,256.001C255.029,255.839 255.426,255.745 255.84,255.685C256.207,255.479 256.586,255.33 256.992,255.231C257.361,255.038 257.706,254.801 258.11,254.68C259.585,253.901 260.963,252.825 262.101,251.54C263.251,250.259 264.11,248.779 264.743,247.248C264.816,247.054 264.903,246.864 265.004,246.678C265.138,246.501 265.093,246.27 265.167,246.075C265.23,245.662 265.516,245.3 265.488,244.857C265.512,244.645 265.55,244.436 265.603,244.228C265.656,244.021 265.745,243.816 265.707,243.587C265.704,243.365 265.715,243.144 265.74,242.922L265.787,242.59L265.818,242.423L265.835,242.334L265.836,242.023C265.874,235.384 265.874,228.745 265.963,222.105C266.217,195.548 266.576,168.989 267.195,142.431L267.651,122.512L267.794,117.532L267.883,115.604L268.003,113.509L268.299,109.327C268.917,103.764 269.905,98.217 271.521,92.837C274.653,82.063 279.768,71.918 286.508,63.121C293.229,54.307 301.51,46.783 310.848,40.966C320.18,35.155 330.605,31.063 341.36,29.077C344.041,28.583 346.755,28.28 349.452,27.948C350.801,27.756 352.152,27.719 353.504,27.671L357.555,27.56L359.577,27.531L360.082,27.526L360.4,27.538L361.022,27.563L363.512,27.668L368.492,27.9C381.773,28.51 395.054,29.122 408.335,29.848C434.898,31.244 461.461,32.853 488.026,34.748C494.667,35.198 501.309,35.692 507.95,36.202L527.874,37.752L537.836,38.563L542.817,38.971L545.663,39.234L549.129,39.61C558.333,40.747 567.3,43.526 575.31,47.84C583.323,52.141 590.443,57.823 596.191,64.541C601.958,71.238 606.384,78.937 609.218,87.07C612.078,95.194 613.346,103.744 613.037,112.051L612.911,115.156C612.897,115.715 612.84,116.08 612.797,116.504L612.66,117.75L612.096,122.732L610.947,132.696C607.802,159.263 604.383,185.836 599.97,212.412Z" style="fill:rgb(67,56,202);fill-rule:nonzero;"/>
    <path d="M480.424,405.727C476.776,407.672 473.105,409.511 469.51,411.506C465.881,413.414 462.314,415.436 458.759,417.441C451.664,421.49 444.702,425.683 437.935,430.104C431.14,434.472 424.572,439.113 418.189,443.895C414.986,446.273 411.891,448.774 408.788,451.232C405.75,453.778 402.707,456.289 399.791,458.931C393.907,464.144 388.288,469.573 383.028,475.247C377.809,480.917 372.91,486.652 368.575,492.767L366.925,495.029C366.381,495.786 365.893,496.583 365.375,497.356C364.366,498.921 363.301,500.437 362.318,502.005L359.472,506.761C358.984,507.54 358.538,508.347 358.114,509.166L356.812,511.598L355.51,514.02C355.094,514.837 354.716,515.678 354.316,516.501C353.535,518.162 352.687,519.773 351.96,521.455L349.803,526.494C349.089,528.171 348.499,529.915 347.84,531.613C345.353,538.487 343.126,545.437 341.496,552.632C339.84,559.807 338.385,567.045 337.439,574.474L337.047,577.24L336.741,580.043L336.122,585.656C335.784,589.542 335.372,593.415 335.091,597.292C334.849,601.172 334.492,605.034 334.353,608.909L334.055,614.708C333.951,616.639 333.925,618.578 333.855,620.51C333.389,635.978 333.618,651.439 334.43,667.167C334.776,675.008 335.285,682.96 335.813,690.936L337.531,715.154C338.103,723.288 338.727,731.502 339.233,739.764L340.852,763.657L341.356,769.448L341.614,772.123L341.746,773.405L341.892,774.602C342.279,777.774 342.764,780.384 343.321,782.374C343.88,784.374 344.474,785.738 345.081,786.71C345.258,786.931 345.377,787.189 345.54,787.4C345.725,787.594 345.834,787.828 346.017,788.018C346.108,788.112 346.194,788.209 346.274,788.31C346.354,788.412 346.408,788.51 346.548,788.641C346.79,788.885 346.993,789.153 347.22,789.405C349.087,791.384 351.512,792.984 354.103,793.993C356.7,794.998 359.405,795.426 361.842,795.209L385.61,794.461L410.123,793.799C442.806,792.905 475.491,792.27 508.176,791.741L532.69,791.408L544.947,791.26L546.424,791.238C546.56,791.208 546.695,791.184 546.83,791.165C547.1,791.126 547.37,791.109 547.643,791.111C547.925,791.161 548.164,791.008 548.423,790.97C548.678,790.914 548.935,790.879 549.198,790.864C551.202,790.401 553.059,789.486 554.729,788.203C556.374,786.915 557.863,785.285 558.704,783.406C559.602,781.556 560.143,779.642 560.228,777.477C560.243,777.343 560.264,777.209 560.29,777.074L560.292,775.608L560.285,772.543L560.246,754.156L560.398,705.124L560.82,656.091C560.867,653.884 560.806,652.656 561.021,648.507C561.109,646.757 561.217,645.007 561.346,643.263C561.476,641.519 561.802,639.777 562.052,638.037C562.33,636.299 562.605,634.56 562.943,632.836C563.357,631.123 563.792,629.414 564.246,627.711C565.073,624.281 566.326,620.985 567.579,617.694C567.897,616.874 568.206,616.05 568.545,615.239L569.669,612.855C570.428,611.27 571.205,609.694 572,608.129C572.38,607.337 572.827,606.584 573.281,605.834L574.641,603.585C575.563,602.095 576.476,600.598 577.462,599.156C578.494,597.746 579.544,596.348 580.609,594.963C581.678,593.582 582.725,592.184 583.926,590.917C586.285,588.347 588.591,585.727 591.239,583.456C601.508,574.059 613.879,566.962 627.213,562.901C630.576,562.022 633.946,561.097 637.359,560.504C639.072,560.236 640.788,559.987 642.505,559.759L645.08,559.432C645.938,559.343 646.798,559.322 647.657,559.271C649.376,559.186 651.097,559.119 652.815,559.073L654.103,559.042L654.747,559.029L655.158,559.036L656.69,559.071L662.82,559.209C679.165,559.545 695.511,560.019 711.857,560.467C728.203,560.929 744.549,561.483 760.896,562.035L782.351,562.833L783.117,562.862L783.493,562.875L783.645,562.872L784.255,562.876C787.525,563.061 790.772,562.638 793.94,561.426L794.248,561.335L794.526,561.185L795.094,560.899C795.475,560.711 795.878,560.553 796.274,560.377C796.628,560.135 796.992,559.907 797.369,559.689C797.735,559.46 798.166,559.303 798.479,558.997C799.133,558.43 799.962,558.026 800.556,557.371C800.883,557.074 801.224,556.786 801.58,556.505C801.911,556.204 802.167,555.841 802.486,555.524C804.913,552.904 806.919,549.752 807.954,546.164C808.051,545.709 808.174,545.256 808.307,544.801L808.521,544.117C808.604,543.89 808.59,543.645 808.635,543.409C808.699,542.933 808.778,542.456 808.872,541.976L808.945,541.615C808.968,541.468 809.005,541.448 809.011,541.131L809.09,539.599L809.722,527.338L811.066,502.816C812.917,470.12 815.01,437.423 817.413,404.724C818.623,388.375 819.889,372.025 821.259,355.675L821.517,352.609L821.581,351.843C821.602,351.593 821.629,351.303 821.633,351.152L821.695,350.048L821.853,347.817L821.897,347.254L821.869,346.699L821.822,345.584C821.794,344.838 821.772,344.085 821.764,343.325L821.465,341.088C821.343,340.344 821.333,339.559 821.134,338.828L820.603,336.598L820.349,335.465C820.248,335.093 820.098,334.739 819.977,334.373L819.223,332.166C819.017,331.4 818.611,330.734 818.304,330.01L817.34,327.838L816.147,325.779C815.73,325.102 815.405,324.341 814.9,323.722L813.496,321.751C813.257,321.424 813.041,321.071 812.783,320.759L811.979,319.846C807.792,314.843 802.377,310.647 796.124,307.736C795.339,307.387 794.526,307.108 793.722,306.781C792.91,306.485 792.112,306.094 791.274,305.86L788.742,305.16C787.893,304.923 787.042,304.635 786.164,304.529L783.529,304.067L782.184,303.832L780.651,303.668L774.519,303.001C758.167,301.147 741.815,299.322 725.46,297.045C741.792,294.617 758.127,292.64 774.461,290.633L780.586,289.909L782.117,289.731L783.834,289.627L787.321,289.446C788.492,289.346 789.655,289.434 790.828,289.489L794.359,289.685C795.54,289.762 796.695,290.007 797.872,290.168C799.042,290.361 800.23,290.517 801.399,290.756C810.735,292.771 819.752,297.024 827.54,303.129L829.014,304.267C829.495,304.658 829.935,305.094 830.397,305.508L833.135,308.053C834.083,308.879 834.849,309.865 835.704,310.784L838.2,313.619L840.443,316.67C841.163,317.71 841.975,318.704 842.581,319.819L844.513,323.121C844.827,323.678 845.166,324.225 845.455,324.795L846.267,326.535L847.869,330.05C848.414,331.224 848.759,332.466 849.206,333.683C849.622,334.908 850.053,336.137 850.439,337.379L851.334,341.174L851.763,343.086L851.974,344.045L852.107,345.011L852.603,348.9L852.834,350.856L852.991,352.462L853.278,355.525C854.8,371.862 856.218,388.199 857.58,404.536C860.287,437.211 862.683,469.887 864.838,502.565L866.41,527.073L867.156,539.327L867.249,540.859C867.27,541.052 867.264,541.542 867.269,541.906L867.272,543.075C867.273,544.635 867.258,546.199 867.228,547.764C867.2,548.546 867.224,549.33 867.142,550.112L866.908,552.459C866.742,554.025 866.567,555.593 866.365,557.159C862.604,582.252 846.797,605.445 824.133,618.216C812.842,624.621 799.933,628.535 786.88,629.359L784.431,629.531L783.428,629.588L782.662,629.624L779.598,629.766L773.47,630.051L761.215,630.621C744.874,631.324 728.534,632.03 712.193,632.644C695.852,633.245 679.511,633.87 663.17,634.358L655.51,634.603L655.155,634.617L655.034,634.646L654.792,634.699C654.471,634.765 654.151,634.811 653.83,634.838C653.671,634.86 653.506,634.842 653.352,634.882C653.201,634.937 653.05,634.986 652.9,635.031C652.599,635.12 652.297,635.189 651.992,635.239C651.916,635.253 651.838,635.258 651.763,635.277L651.551,635.377C651.409,635.441 651.268,635.501 651.125,635.555C650.839,635.661 650.548,635.743 650.251,635.808C648.018,636.754 646.004,638.188 644.359,639.965C643.871,640.332 643.621,640.925 643.205,641.351C642.974,641.549 642.87,641.847 642.714,642.1C642.563,642.357 642.397,642.6 642.213,642.832C642.078,643.095 641.988,643.382 641.842,643.633C641.773,643.761 641.701,643.887 641.623,644.01C641.541,644.131 641.457,644.251 641.433,644.4C641.35,644.68 641.249,644.948 641.129,645.208C641.069,645.338 641.005,645.465 640.935,645.591C640.897,645.73 640.881,645.875 640.846,646.013C640.726,646.569 640.449,647.073 640.441,647.655C640.396,647.933 640.331,648.205 640.246,648.473C640.235,648.76 640.247,649.05 640.215,649.33C640.211,649.616 640.093,649.881 640.125,650.177C640.16,650.473 640.174,650.765 640.169,651.055C640.105,650.985 640.179,653.846 640.222,655.724L641.1,704.751L641.708,753.78L641.796,766.037L641.84,772.166L641.862,775.23L641.869,776.828L641.791,779.487C641.472,793.654 637.907,807.957 631.395,820.67C624.93,833.43 615.461,844.495 604.135,853.101C592.805,861.687 579.482,867.854 565.452,870.623C563.697,870.926 561.936,871.208 560.173,871.47C558.409,871.711 556.646,872.028 554.879,872.095C553.112,872.21 551.342,872.305 549.572,872.379L546.919,872.474L545.331,872.474L533.073,872.44L508.557,872.335C475.868,872.11 443.18,871.779 410.489,871.188L385.971,870.754L360.71,870.167C353.764,869.953 346.883,868.962 340.257,867.205C333.627,865.452 327.256,862.933 321.244,859.787C309.23,853.485 298.627,844.571 290.448,833.646C289.433,832.278 288.471,830.865 287.506,829.461C286.544,828.064 285.615,826.454 284.707,824.94C283.799,823.402 283.009,821.796 282.189,820.212C281.395,818.619 280.708,816.996 279.997,815.378C277.279,808.879 275.57,802.35 274.51,796.346C273.448,790.323 273.004,784.799 272.776,779.824L272.696,777.965L272.646,776.188C272.609,774.98 272.589,773.865 272.58,772.743L272.557,766.287L272.94,741.165L273.472,716.758C273.785,700.382 274.268,683.678 275.24,666.698C275.736,658.225 276.448,649.665 277.267,641.114C277.747,636.825 278.145,632.552 278.748,628.268L279.598,621.851C279.884,619.713 280.239,617.578 280.558,615.444C281.815,606.902 283.433,598.414 285.18,589.989C286.049,585.775 287.049,581.598 287.98,577.411C288.475,575.294 289.049,573.111 289.592,570.972L290.418,567.751L291.343,564.531C293.725,555.957 296.627,547.416 299.997,539.046C303.321,530.663 307.275,522.443 311.719,514.525C316.131,506.588 321.17,498.974 326.707,491.817L328.791,489.141C329.476,488.244 330.181,487.363 330.929,486.515L335.327,481.382C336.828,479.707 338.389,478.089 339.928,476.461C340.707,475.655 341.458,474.826 342.258,474.045L344.676,471.723C346.305,470.198 347.856,468.597 349.544,467.152L354.553,462.781C356.218,461.327 357.998,460.018 359.711,458.638C361.436,457.268 363.159,455.91 364.928,454.664C371.884,449.479 379.159,444.827 386.536,440.494C393.926,436.175 401.465,432.222 409.158,428.705C416.833,425.157 424.599,421.92 432.481,419.094C448.224,413.409 464.231,408.932 480.424,405.727Z" style="fill:rgb(67,56,202);fill-rule:nonzero;"/>
    <path d="M268.609,508.812C267.656,506.142 266.744,503.449 265.901,500.73C265.046,498.013 264.315,495.265 263.546,492.504C263.177,491.122 262.838,489.733 262.509,488.339C262.168,486.946 261.849,485.547 261.564,484.141L260.677,479.912L259.898,475.649C257.904,464.245 257.053,452.5 257.339,440.517C257.606,434.538 257.999,428.477 258.99,422.425C259.388,419.383 260.016,416.359 260.641,413.319C260.921,411.791 261.361,410.295 261.73,408.777C262.129,407.267 262.478,405.735 262.93,404.23C266.467,392.166 271.775,380.241 278.941,369.207L281.76,365.16C282.711,363.813 283.643,362.441 284.696,361.175C286.763,358.61 288.773,355.941 291.048,353.543L294.417,349.869C295.567,348.671 296.781,347.555 297.97,346.394C299.172,345.253 300.359,344.074 301.593,342.965L305.374,339.745C315.56,331.244 326.817,324.199 338.491,318.556C339.95,317.851 341.409,317.096 342.88,316.436L347.313,314.529L351.775,312.656C353.259,312.055 354.712,311.563 356.186,311.012C359.129,309.962 362.066,308.813 365.042,307.867L369.505,306.393C370.985,305.888 372.54,305.504 374.058,305.055L378.646,303.763L383.204,302.623C386.261,301.829 389.267,301.189 392.289,300.524C398.33,299.226 404.286,298.204 410.2,297.222C433.758,293.487 456.099,291.702 476.281,288.708C478.768,288.315 481.277,287.936 483.697,287.513L490.707,286.128C491.873,285.891 493.047,285.736 494.204,285.437L497.68,284.605C499.993,284.027 502.318,283.568 504.614,282.913C509.199,281.568 513.794,280.369 518.325,278.801L521.733,277.697L523.435,277.141L525.121,276.507L531.861,273.993C567.685,260.01 601.389,238.258 633.134,212.317L633.628,211.913C650.96,197.75 676.491,200.319 690.653,217.651C695.74,223.877 698.66,231.125 699.52,238.56L699.829,241.187L700.074,243.473L700.508,247.905C700.778,250.828 701.018,253.716 701.233,256.593C701.678,262.343 701.973,268.058 702.189,273.767C702.622,285.182 702.779,296.575 702.483,307.993C702.221,319.409 701.647,330.844 700.589,342.299C700.086,348.025 699.482,353.761 698.769,359.498C698.05,365.231 697.173,370.974 696.246,376.715C692.449,399.677 686.674,422.71 677.987,445.372C673.504,456.662 668.473,467.905 662.204,478.766C656.064,489.658 648.779,500.204 640.366,510.031C636.172,514.959 631.585,519.63 626.809,524.102C624.333,526.278 621.941,528.501 619.339,530.543C618.048,531.57 616.802,532.633 615.472,533.616L611.473,536.536L610.464,537.262L609.363,538.006L607.158,539.481C605.693,540.45 604.169,541.503 602.879,542.151L594.822,546.571C592.119,548.097 589.483,549.28 586.833,550.565C584.179,551.818 581.558,553.127 578.888,554.314C557.496,563.744 535.353,570.577 512.94,574.85C490.505,579.031 467.783,580.551 445.451,579.386C423.13,578.156 401.153,574.282 380.548,567.116C402.29,565.396 423.245,562.116 443.425,557.02C463.595,551.969 482.981,545.259 501.389,537.026C519.761,528.704 537.165,518.928 553.224,507.871C555.231,506.492 557.164,505.013 559.131,503.599C561.076,502.171 563.107,500.761 564.832,499.302L570.219,495.034C571.223,494.308 571.767,493.669 572.426,493.024L573.399,492.067L573.886,491.594L574.414,491.039C577.292,488.11 580.008,485.001 582.592,481.776C585.115,478.464 587.522,475.059 589.785,471.487C598.734,457.13 605.39,440.451 610.17,422.613C614.991,404.762 618.015,385.828 619.894,366.499C620.34,361.657 620.754,356.805 621.032,351.912C621.347,347.027 621.629,342.127 621.793,337.202C621.98,332.281 622.065,327.343 622.123,322.394C622.189,317.446 622.202,312.49 622.123,307.525C621.942,297.6 621.652,287.646 621.039,277.742C620.731,272.793 620.36,267.855 619.974,262.966C619.773,260.523 619.551,258.095 619.313,255.706L618.941,252.175L618.579,249.136L684.965,275.379C666.473,290.533 646.801,304.746 625.506,317.063C620.268,320.245 614.734,323.046 609.307,325.974C606.56,327.395 603.749,328.732 600.972,330.109L596.794,332.155L592.533,334.081L583.965,337.832L575.228,341.292C573.764,341.853 572.332,342.467 570.843,342.982L566.391,344.548C563.414,345.573 560.48,346.672 557.452,347.574L548.378,350.278L546.11,350.948L543.81,351.54L539.205,352.704C536.125,353.446 533.095,354.323 529.962,354.89L520.628,356.74C517.516,357.341 514.351,357.739 511.219,358.238L506.511,358.943C504.947,359.196 503.352,359.303 501.775,359.488L492.291,360.406C489.199,360.641 486.183,360.804 483.148,360.983C459.106,362.142 436.994,361.296 416.33,361.74C413.785,361.822 411.192,361.86 408.674,361.972C406.181,362.105 403.609,362.177 401.168,362.354C398.701,362.509 396.207,362.637 393.81,362.883L390.17,363.204L386.611,363.633C384.243,363.882 381.835,364.271 379.419,364.637C376.99,364.964 374.625,365.475 372.213,365.885C371.023,366.11 369.781,366.296 368.625,366.551L365.2,367.346L361.745,368.107C360.603,368.378 359.51,368.725 358.383,369.027C340.389,373.916 324.078,382.069 310.562,394.64L308.104,397.079C307.294,397.907 306.413,398.687 305.672,399.584C304.139,401.337 302.51,403.048 301.083,404.938L298.852,407.731L296.77,410.667L295.716,412.143C295.375,412.643 295.068,413.165 294.74,413.677L292.764,416.766C287.67,425.16 283.504,434.496 280.098,444.392C273.424,464.271 270.13,486.222 268.609,508.812Z" style="fill:rgb(20,184,166);fill-rule:nonzero;"/>
</svg>
